<!-- Created with Inkscape (http://www.inkscape.org/) -->
<svg id="svg2" xmlns:rdf="http://www.w3.org/1999/02/22-rdf-syntax-ns#" xmlns="http://www.w3.org/2000/svg" viewBox="0 0 82 146" version="1.1" xmlns:cc="http://creativecommons.org/ns#" xmlns:dc="http://purl.org/dc/elements/1.1/">
 <metadata id="metadata7">
  <rdf:RDF>
   <cc:Work rdf:about="">
    <dc:format>image/svg+xml</dc:format>
    <dc:type rdf:resource="http://purl.org/dc/dcmitype/StillImage"/>
    <dc:title/>
   </cc:Work>
  </rdf:RDF>
 </metadata>
 <g id="g3790">
  <path id="path3794" d="m85.248,68.903c1.0026,0-1.2065-0.46612-1.2065-2.174,0-1.4704,0.99336-3.5165,2.25-4.6346,1.5262-1.3579,1.8479-2.1463,1-2.4506-0.71086-0.25517-1.25-2.138-1.25-4.3654,0-3.25,0.34043-3.9167,2-3.9167,1.1,0,2-0.45,2-1s-0.9-1-2-1-2-0.45-2-1c0-0.55556-2.6667-1-6-1-5.3333,0-6-0.22222-6-2,0-1.1-0.45-2-1-2s-1-2.25-1-5v-5h10,10v-6c0-3.3333,0.44444-6,1-6,0.55,0,1-0.70714,1-1.5714,0-2.9328,2.7021-4.4286,8-4.4286s8,1.4958,8,4.4286c0,0.86429,0.45,1.5714,1,1.5714,0.55555,0,1,2.6667,1,6v6h10,10v5c0,2.75-0.45,5-1,5-0.54999,0-1,0.9-1,2,0,1.7778-0.66666,2-6,2-3.3333,0-6,0.44444-6,1,0,0.55-0.90001,1-2,1s-2,0.45-2,1,0.9,1,2,1c1.6596,0,2,0.66667,2,3.9167,0,2.1959-0.53671,4.0956-1.2216,4.3239-1.3947,0.46491,3.4292,5.7595,5.2476,5.7595-0.30242,0.86192-4.028,3.3024-4.9229,4.1932-1.6953,1.6874-1.1481,1.7713-3.5344,2.8302-3.0854,1.3691-3.8156,6.5027-10.892,6.6629-8.2723,0.1873-6.0862-3.398-9.5372-5.1786-2.1795-1.1246-2.1831-3.2786-4.3626-3.9845-1.5623-0.50604-2.7543,0.09091-3.5702-0.98176z" fill-opacity="0.77124184" transform="translate(-62.041145,6.6386404)" fill="#ff8080"/>
 </g>
 <g id="layer2">
  <path id="path3801" d="m13,114c1.65,1.5413,3,3.5269,3,4.4062,0,0.87933,0.45,1.5938,1,1.5938s1,1.35,1,3c0,2.0606-0.48313,3-1.5625,3-2.361,0-4.438,2.54-4.438,5.44,0,1.41-0.45,2.56-1,2.56-1.4359,0-1.2355,6.8128,0.25,8.5,0.79824,0.90665,3.3281,1.4444,7,1.4688,5.7307,0.0379,5.75,0.0212,5.75-2.9688,0-2.5556,0.37202-3,2.5625-3,2.7868,0,5.4375-2.0586,5.4375-4.2188,0-0.74287,0.9-1.9884,2-2.7812,1.1-0.79284,2-2.0527,2-2.7812,0-0.72859,1.1179-2.4304,2.5-3.8125,2.224-2.224,2.684-2.3473,4-1.0312,0.81786,0.81786,1.5,1.9795,1.5,2.5938,0,1.66,4.689,6.03,6.469,6.03,1.222,0,1.531,1.25,1.531,6,0,5.9619,0.0081,6,2.9062,6,1.6042,0,3.1792-0.5625,3.5-1.25,0.46667-1,0.72083-1,1.1875,0,0.37026,0.79343,2.7444,1.25,6.5,1.25h5.906v-3.56c0-3.78-1.832-6.44-4.438-6.44-0.864,0-1.562-0.45-1.562-1s0.9-1,2-1c1.5556,0,2-0.66667,2-3,0-1.65-0.45-3-1-3-1.457,0-1.2274-7.7168,0.25-8.4062,1-0.46666,1-0.72084,0-1.1875-0.6875-0.32084-1.25-1.8958-1.25-3.5,0-1.6-0.45-2.9-1-2.9-4.1722-2.6436-28.133,1.3326-34.461,2.1664-6.3835,0.84121-4.1042,1.7466-6.0734,1.3431-2.2977-0.4708-1.453-5.4672-7.0661-4.5365-2.322,0.39-3.337,4.75-6.4,5.03z" fill-opacity="0.78431374" fill="#0F0"/>
 </g>
 <g id="layer3">
  <path id="path3759" fill-opacity="0.75816995" fill="#F0F" d="M60.031,72c-0.302,0.862-4.042,3.297-4.937,4.188-1.696,1.687-1.145,1.784-3.532,2.843,5.725,17.827,4.889,16.559,4.407,30.279,4.948-0.33,9.152-0.29,10.843,0.6-0.454-0.38-0.812-1.99-0.812-3.91,0-2.2-0.45-4-1-4-0.618,0-1-5.182-1-13.562,0-13.622-0.674-16.438-3.969-16.438zm-38.031,1.375c0,1.708-0.529,2.625-1.531,2.625-2.001,0-6.469,4.468-6.469,6.469,0,0.85-0.45,1.531-1,1.531s-1,1.35-1,3-0.45,3-1,3c-0.604,0-1,4.195-1,10.59,0,10.49,0.032,10.64,3,13.41,3.063-0.28,4.085-4.65,6.406-5.03,5.613-0.93,4.765,4.06,7.063,4.53-0.512-1.15,0.077-1.82-0.094-3.41-0.056-0.52-0.213-1.13-0.5-1.9-0.942-2.54-4.346-7.48-4.563-9.471-0.443-4.101,1.991-5.012,2.626-9.157,0.813-5.31,6.014-10.124,2.843-13.031-1.562-0.506-2.746,0.073-3.562-1,1.002,0-1.219-0.448-1.219-2.156z"/>
 </g>
 <g id="layer4">
  <path id="path3792" d="m26.781,76.531c3.1712,2.9069-2.0307,7.7211-2.8438,13.031-0.6346,4.1445-3.0689,5.055-2.625,9.1562,0.21603,1.9959,3.6208,6.9341,4.5625,9.4688,0.28671,0.77172,0.44353,1.3835,0.5,1.9062,0.17093,1.5823-0.41786,2.2567,0.09375,3.4062,1.9691,0.40347-0.32104-0.50254,6.0625-1.3438,3.9653-0.52254,14.833-2.2612,23.438-2.8438,0.483-13.74,1.319-12.472-4.406-30.299-3.085,1.369-3.798,6.496-10.874,6.657-8.273,0.187-6.112-3.407-9.563-5.188-2.18-1.125-2.164-3.263-4.344-3.969z" fill-opacity="0.73202616" fill="#0FF"/>
 </g>
</svg>
