<!-- Created with Inkscape (http://www.inkscape.org/) -->
<svg id="svg2" xmlns:rdf="http://www.w3.org/1999/02/22-rdf-syntax-ns#" xmlns="http://www.w3.org/2000/svg" viewBox="0 0 60 164" height="100%" width="100%" version="1.1" xmlns:cc="http://creativecommons.org/ns#" xmlns:dc="http://purl.org/dc/elements/1.1/">
 <metadata id="metadata7">
  <rdf:RDF>
   <cc:Work rdf:about="">
    <dc:format>image/svg+xml</dc:format>
    <dc:type rdf:resource="http://purl.org/dc/dcmitype/StillImage"/>
    <dc:title/>
   </cc:Work>
  </rdf:RDF>
 </metadata>
 <path id="path3016" fill-opacity="0.78289472" fill="#F00" d="m19.181,35.54c0.51647,1.2537,2.7863,3.7005,2.7863,4.6791,0,0.97858,0.45,1.7812,1,1.7812s1,1.35,1,3c0,2.3333-0.44444,3-2,3,9.5249,3.6853,11.871,2.9765,20,0-1.5556,0-2-0.66667-2-3,0-1.65,0.45-3,1-3s1-0.80267,1-1.7812c0-0.97859,0.89948-1.9574,2-3.2188s1.1226-1.6777,1.9036-4.1032c0.38949-1.2095-0.38593-3.9201-0.77018-6.1684-0.38424-2.2483-3.5934-2.6634,4.8666-2.7285,3.3,0,6-0.24822,6-0.5625,0-1.1733-2.922-3.4375-4.4375-3.4375-0.86429,0-1.5625-0.45-1.5625-1s-1.8-1-4-1h-4v-5.532c0-7.596-2.7343-10.469-10-10.469s-10,2.8728-10,10.469v5.5312h-4c-2.2,0-4,0.45-4,1s-0.69821,1-1.5625,1c-1.5155,0-4.4375,2.2642-4.4375,3.4375,0,0.31428,2.7,0.5625,6,0.5625,3.1498,0.22614,3.4034-0.11414,6.1135-0.56296-1.4354,1.9903-2.8482,7.3729-0.89984,12.103z"/>
 <path id="path3937" fill-opacity="0.83552629" fill="#F0F" d="M17.969,46c-1.251,0-2,0.669-2,1.781,0,0.979-2.525,4.27-3.625,5.063-2.6991,2.513-1.893,2.638-3.6878,7.562-3.2996,5.559-4.053,7.113-5.9374,13.906-1.2294,4.74-0.6585,7.261,1.4062,13.032,1.7455,2.159,2.9554,7.169,5.125,9.281,1.705,0.987,4.562,2.591,7.312,1.906,2.272-0.566,2.333-0.955,4.907-2.281,1.384-0.163,3.871-4.088,4.093-4.844,0.859-2.913-0.703-8.945-0.656-10,0.077-1.703-1.049-0.674-3.218,0.282-1.145,0.504-3.421,0.981-4.126,1.031-1.726,0.123,0.093-2.148-1.75-2.125-2.422,0.03-4.402-0.474-4.406-2.688-0.004-2.17,1.296-3.844,1.75-5.812,0.845-3.703,1.376-5.932,3.469-9.344,2.591-4.259,6.321-8.401,6.687-11.406,0.278-2.272,2.875-1.742-1.343-3.344-1.1,0-2-0.45-2-1s-0.9-1-2-1zm28,0c-1.1,0-2,0.45-2,1s-0.9,1-2,1c-12.707,2.265-0.433,4.421,3.062,9.031,2.668,3.519,2.982,5.673,3.157,6.907,0.457,3.232,1.097,3.557,1.781,9.531,0.195,1.705-1.361,6.78-3.657,8.843-3.234,2.908-7.775,2.949-9.687,6.282-1.147,2.001,2.51,3.866,3.219,5.718,0.849,2.22-1.091,4.262-1,4.5,4.375,2.838,9.3-2.752,12.125-2.812-2.225,0-0.903-5.289,2-8,1.65-1.541,3-3.527,3-4.406,0-0.88,0.45-1.594,1-1.594s1-2.25,1-5-0.45-5-1-5-1-1.35-1-3-0.45-3-1-3-1-1.8-1-4-0.45-4-1-4-1-1.253-1-2.781c0-1.632-0.826-3.372-2-4.219-1.1-0.793-2-2.24-2-3.219,0-1.112-0.749-1.781-2-1.781z"/>
 <path id="path3068" fill-opacity="0.79605264" fill="#12ff00" d="m21.967,48c4.2177,1.6021,1.6207,1.0715,1.3438,3.3438-0.36634,3.0056-4.0943,6.6433-6.6875,10.902-0.53115,0.87229,1.1271,2.2528,1.3044,3.7032,0.23318,1.9075-0.93228,3.9357-1.4076,5.0874-1.3058,3.164-0.21572,7.2697-0.21091,10.063,0.01015,5.8886,9.1185-3.5169,8.7701,0.30944-0.0957,1.051,0.99882,7.2441,0.14032,10.157-7.0853,11.306-4.8299,0.44559-3.3774,4.9965,5.7124-0.67712,15.548-2.5942,17,2.25-0.09147-0.23941,1.8492-2.2799,1-4.5-0.70866-1.8528-4.3663-3.7178-3.2188-5.7188,1.9116-3.3331,6.4532-3.3737,9.6875-6.2812,2.295-2.063,3.851-7.138,3.656-8.843-0.683-5.974-1.324-6.298-1.781-9.531-0.175-1.234-0.457-3.388-3.125-6.907-2.559-3.374-9.829-5.441-8.563-7.187-4.398,1.199-7.523,0.867-14.531-1.844z"/>
 <path id="path3094" fill-opacity="0.7254902" fill="#1e00ff" d="m12.362,98.261c0.07705,0.45155,1.3157,14.901,1.3791,15.312,0.25433,1.647,4.0169-0.97823,4.1053,0.93579,0.153,3.3,0.121,7.45,0.121,17.49,0,11.333-0.37037,18-1,18-0.55,0-1,0.9-1,2,0,1.1372-0.65246,2-1.5312,2-2.001,0-6.469,4.47-6.469,6.47,0,1.24,1.3344,1.53,6.906,1.53,4.5556,0,7.1158-0.42671,7.5-1.25,0.46666-1,0.72084-1,1.1875,0,0.77983,1.6711,3.2067,1.5746,4.9688-0.1875,1.169-1.17,1.437-6.44,1.437-29,0-26.9,0.048-27.56,2-27.56,1.9516,0,2,0.65774,2,27.562,0,22.562,0.26849,27.831,1.4375,29,1.7621,1.7621,4.1889,1.8586,4.9688,0.1875,0.46666-1,0.72084-1,1.1875,0,0.38421,0.82329,2.9444,1.25,7.5,1.25,5.572,0,6.906-0.29,6.906-1.53,0-2-4.468-6.47-6.469-6.47-0.879,0-1.531-0.86-1.531-2,0-1.1-0.45-2-1-2-0.62963,0-1-6.6667-1-18v-18h6v-9c0-5.3333-0.40741-9-1-9-2.8246,0.05982-7.7622,5.6404-12.138,2.7989-1.4521-4.8442-11.262-2.9121-16.974-2.235-3.4812,1.1283-5.0502,2.3706-9.4919,1.6946z"/>
</svg>
