<?xml version="1.0" encoding="UTF-8" standalone="no"?>
<!-- Created with Inkscape (http://www.inkscape.org/) -->

<svg
   xmlns:dc="http://purl.org/dc/elements/1.1/"
   xmlns:cc="http://creativecommons.org/ns#"
   xmlns:rdf="http://www.w3.org/1999/02/22-rdf-syntax-ns#"
   xmlns:svg="http://www.w3.org/2000/svg"
   xmlns="http://www.w3.org/2000/svg"
   xmlns:sodipodi="http://sodipodi.sourceforge.net/DTD/sodipodi-0.dtd"
   xmlns:inkscape="http://www.inkscape.org/namespaces/inkscape"
   width="82"
   height="146"
   id="svg2"
   version="1.1"
   inkscape:version="0.48.4 r9939"
   sodipodi:docname="mark-flesh.svg">
  <defs
     id="defs4" />
  <sodipodi:namedview
     id="base"
     pagecolor="#ffffff"
     bordercolor="#666666"
     borderopacity="1.0"
     inkscape:pageopacity="0.0"
     inkscape:pageshadow="2"
     inkscape:zoom="2.6738282"
     inkscape:cx="-13.867611"
     inkscape:cy="58.080872"
     inkscape:document-units="px"
     inkscape:current-layer="layer3"
     showgrid="false"
     fit-margin-top="0"
     fit-margin-left="0"
     fit-margin-right="0"
     fit-margin-bottom="0"
     inkscape:window-width="1317"
     inkscape:window-height="729"
     inkscape:window-x="49"
     inkscape:window-y="18"
     inkscape:window-maximized="0" />
  <metadata
     id="metadata7">
    <rdf:RDF>
      <cc:Work
         rdf:about="">
        <dc:format>image/svg+xml</dc:format>
        <dc:type
           rdf:resource="http://purl.org/dc/dcmitype/StillImage" />
        <dc:title />
      </cc:Work>
    </rdf:RDF>
  </metadata>
  <g
     style="display:inline"
     inkscape:label="mark-head"
     id="g3790"
     inkscape:groupmode="layer">
    <path
       style="fill:#ff8080;fill-opacity:0.77124184;display:inline"
       d="m 85.247677,68.902696 c 1.002592,0 -1.206528,-0.466116 -1.206528,-2.174046 0,-1.47038 0.993362,-3.51654 2.25,-4.63463 1.526206,-1.35794 1.847892,-2.14627 1,-2.45063 -0.71086,-0.25517 -1.25,-2.138 -1.25,-4.36536 0,-3.25 0.340426,-3.91667 2,-3.91667 1.1,0 2,-0.45 2,-1 0,-0.55 -0.9,-1 -2,-1 -1.1,0 -2,-0.45 -2,-1 0,-0.55556 -2.666667,-1 -6,-1 -5.333333,0 -6,-0.22222 -6,-2 0,-1.1 -0.45,-2 -1,-2 -0.55,0 -1,-2.25 -1,-5 l 0,-5 10,0 10,0 0,-6 c 0,-3.33333 0.444444,-6 1,-6 0.55,0 1,-0.70714 1,-1.57143 0,-2.93276 2.702102,-4.42857 8.000001,-4.42857 5.29789,0 8,1.49581 8,4.42857 0,0.86429 0.45,1.57143 1,1.57143 0.55555,0 1,2.66667 1,6 l 0,6 10,0 9.99999,0 0,5 c 0,2.75 -0.45,5 -1,5 -0.54999,0 -1,0.9 -1,2 0,1.77778 -0.66666,2 -5.99999,2 -3.33334,0 -6,0.44444 -6,1 0,0.55 -0.90001,1 -2,1 -1.1,0 -2,0.45 -2,1 0,0.55 0.9,1 2,1 1.65957,0 2,0.66667 2,3.91667 0,2.19586 -0.53671,4.09557 -1.2216,4.32386 -1.39473,0.46491 3.42925,5.75947 5.24757,5.75947 -0.30242,0.861917 -4.02797,3.302393 -4.92292,4.193175 -1.69534,1.687432 -1.1481,1.771294 -3.53439,2.830154 -3.0854,1.369067 -3.81555,6.502711 -10.89214,6.662937 -8.272346,0.187301 -6.086219,-3.398003 -9.5372,-5.178649 -2.179548,-1.124609 -2.183094,-3.27856 -4.362628,-3.984525 -1.562298,-0.506038 -2.754313,0.09091 -3.570165,-0.981756 z"
       id="path3794"
       inkscape:connector-curvature="0"
       sodipodi:nodetypes="csssssssssssscccssssssscccsssssssssscsssssc"
       transform="translate(-62.041145,6.6386404)" />
  </g>
  <g
     inkscape:groupmode="layer"
     id="layer2"
     inkscape:label="mark-legs"
     style="display:inline">
    <path
       inkscape:connector-curvature="0"
       id="path3801"
       d="m 13,114 c 1.65,1.54133 3,3.52692 3,4.40625 0,0.87933 0.45,1.59375 1,1.59375 0.55,0 1,1.35 1,3 0,2.06061 -0.483134,3 -1.5625,3 C 14.076941,126 12,128.54391 12,131.4375 12,132.85179 11.55,134 11,134 c -1.435908,0 -1.235508,6.81275 0.25,8.5 0.798244,0.90665 3.328076,1.44445 7,1.46875 5.73068,0.0379 5.75,0.0212 5.75,-2.96875 0,-2.55556 0.372023,-3 2.5625,-3 2.786799,0 5.4375,-2.05864 5.4375,-4.21875 0,-0.74287 0.9,-1.98841 2,-2.78125 1.1,-0.79284 2,-2.05267 2,-2.78125 0,-0.72859 1.117863,-2.43035 2.5,-3.8125 2.22401,-2.22401 2.68398,-2.34727 4,-1.03125 0.81786,0.81786 1.5,1.97946 1.5,2.59375 C 44,127.63008 48.68926,132 50.46875,132 51.69097,132 52,133.2549 52,138 c 0,5.9619 0.0081,6 2.90625,6 1.60417,0 3.17917,-0.5625 3.5,-1.25 0.46667,-1 0.72083,-1 1.1875,0 0.37026,0.79343 2.74444,1.25 6.5,1.25 L 72,144 72,140.4375 C 72,136.6558 70.16767,134 67.5625,134 66.69822,134 66,133.55 66,133 c 0,-0.55 0.9,-1 2,-1 1.55556,0 2,-0.66667 2,-3 0,-1.65 -0.45,-3 -1,-3 -1.45695,0 -1.22743,-7.71678 0.25,-8.40625 1,-0.46666 1,-0.72084 0,-1.1875 -0.6875,-0.32084 -1.25,-1.89584 -1.25,-3.5 C 68,111.30208 67.55,110 67,110 c -4.172173,-2.64358 -28.133333,1.33255 -34.460991,2.1664 -6.383542,0.84121 -4.104236,1.74657 -6.073359,1.3431 -2.297721,-0.4708 -1.453028,-5.46721 -7.066052,-4.53651 C 17.078124,109.35791 16.063344,113.72368 13,114 z"
       style="fill:#00ff00;fill-opacity:0.78431374;display:inline"
       sodipodi:nodetypes="csssssssssssssssssssssscssssssscscsssc" />
  </g>
  <g
     inkscape:groupmode="layer"
     id="layer3"
     inkscape:label="mark-arms"
     style="display:inline">
    <path
       style="fill:#ff00ff;fill-opacity:0.75816995;display:inline"
       d="M 60.03125 72 C 59.72883 72.861917 55.9887 75.296718 55.09375 76.1875 C 53.39841 77.874932 53.94879 77.97239 51.5625 79.03125 C 57.287185 96.858328 56.451411 95.590097 55.96875 109.3125 C 60.917165 108.97689 65.120834 109.01709 66.8125 109.90625 C 66.357915 109.53164 66 107.925 66 106 C 66 103.8 65.54999 102 65 102 C 64.38245 102 64 96.81845 64 88.4375 C 64 74.81647 63.32614 72 60.03125 72 z M 22 73.375 C 22 75.08293 21.471342 76 20.46875 76 C 18.468281 76 14 80.46829 14 82.46875 C 14 83.31875 13.55 84 13 84 C 12.45 84 12 85.35 12 87 C 12 88.65 11.55 90 11 90 C 10.396234 90 10 94.19456 10 100.59375 C 10 111.08076 10.03164 111.22714 13 114 C 16.063344 113.72368 17.084776 109.35367 19.40625 108.96875 C 25.019274 108.03805 24.171029 113.0292 26.46875 113.5 C 25.957138 112.35047 26.545933 111.67604 26.375 110.09375 C 26.31853 109.571 26.161709 108.95922 25.875 108.1875 C 24.933313 105.65282 21.528534 100.71463 21.3125 98.71875 C 20.868582 94.617511 23.302899 93.707045 23.9375 89.5625 C 24.750568 84.252395 29.9525 79.438163 26.78125 76.53125 C 25.218952 76.025212 24.034602 76.60392 23.21875 75.53125 C 24.221342 75.53125 22 75.08293 22 73.375 z "
       id="path3759" />
  </g>
  <g
     inkscape:groupmode="layer"
     id="layer4"
     inkscape:label="mark-body"
     style="display:inline">
    <path
       style="fill:#00ffff;fill-opacity:0.73202616;display:inline"
       d="m 26.78125,76.53125 c 3.17125,2.906913 -2.030682,7.721145 -2.84375,13.03125 -0.634601,4.144545 -3.068918,5.055011 -2.625,9.15625 0.216034,1.99588 3.620813,6.93407 4.5625,9.46875 0.286709,0.77172 0.44353,1.3835 0.5,1.90625 0.170933,1.58229 -0.417862,2.25672 0.09375,3.40625 1.969123,0.40347 -0.321042,-0.50254 6.0625,-1.34375 3.965282,-0.52254 14.832567,-2.2612 23.4375,-2.84375 C 56.451411,95.590097 57.287185,96.858328 51.5625,79.03125 48.4771,80.400317 47.76409,85.527274 40.6875,85.6875 32.415154,85.874801 34.575981,82.280646 31.125,80.5 28.945452,79.375391 28.960784,77.237215 26.78125,76.53125 z"
       id="path3792"
       inkscape:connector-curvature="0"
       sodipodi:nodetypes="csssscsccssc" />
  </g>
</svg>
